<svg width="10" height="7" viewBox="0 0 10 7" fill="none" xmlns="http://www.w3.org/2000/svg">
<path d="M9.8859 3.26947L5.91784 0.265062C5.86473 0.223906 5.8043 0.207031 5.74623 0.207031C5.59665 0.207031 5.45659 0.325344 5.45659 0.496907V1.77683C5.45659 1.9363 5.32599 2.06666 5.16671 2.06666H3.64276H1.95216H1.08258C0.923304 2.06666 0.795288 2.19462 0.795288 2.35414V4.64605C0.795288 4.80552 0.923257 4.93353 1.08258 4.93353H1.95216H3.64276H5.16671C5.32599 4.93353 5.45659 5.06394 5.45659 5.22322V6.50333C5.45659 6.67489 5.59665 6.79316 5.74623 6.79316C5.80426 6.79316 5.86473 6.77633 5.91784 6.73513L9.8859 3.73072C10.038 3.6148 10.038 3.38539 9.8859 3.26947Z" fill="#333333"/>
</svg>
