<svg width="19" height="19" viewBox="0 0 19 19" fill="none" xmlns="http://www.w3.org/2000/svg">
<path d="M6.46985 17.0129C6.46985 17.0129 6.50215 16.9805 6.54165 16.941L14.1488 9.33394C14.1883 9.29444 14.2238 9.25894 14.2276 9.25507C14.2315 9.2512 14.267 9.21569 14.3065 9.1762L18.337 5.14566C18.3377 5.14495 18.3377 5.14378 18.337 5.14304L13.8382 0.644326C13.8375 0.643623 13.8364 0.643623 13.8356 0.644326L9.80508 4.67487C9.76559 4.71437 9.73008 4.74987 9.72622 4.75374C9.72235 4.75761 9.68684 4.79312 9.64735 4.83261L1.96879 12.5112C1.96856 12.5114 1.9684 12.5117 1.96832 12.512L8.21478e-05 18.979C-0.00034754 18.9804 0.000980586 18.9817 0.00238684 18.9813L6.37266 17.0425C6.4261 17.0262 6.46985 17.0129 6.46985 17.0129ZM1.43493 17.5441L2.4177 14.315C2.41809 14.3137 2.41977 14.3132 2.42075 14.3142L4.66711 16.5606C4.66809 16.5616 4.66766 16.5632 4.66633 16.5636L1.43719 17.5464C1.43579 17.5469 1.43446 17.5456 1.43493 17.5441Z" fill="url(#paint0_linear_8_1507)"/>
<defs>
<linearGradient id="paint0_linear_8_1507" x1="-1.36625e-07" y1="9.81258" x2="18.3376" y2="9.81258" gradientUnits="userSpaceOnUse">
<stop stop-color="#A3A6E1"/>
<stop offset="1" stop-color="#FFABD9"/>
</linearGradient>
</defs>
</svg>
