<svg width="21" height="8" viewBox="0 0 21 8" fill="none" xmlns="http://www.w3.org/2000/svg">
<path d="M15.705 4.18547C15.7086 4.09041 15.7162 3.9952 15.7162 3.9V3.63759C15.7162 1.63242 14.1075 0 12.1312 0H8.86489C6.8886 0 5.27987 1.63237 5.27987 3.63759V3.9C5.27987 3.9952 5.28735 4.09041 5.29493 4.18547H0V7.119H21V4.18547H15.705ZM13.4662 3.9C13.4662 3.99905 13.455 4.09411 13.4363 4.18547H7.55996C7.5412 4.09411 7.52993 3.99905 7.52993 3.9V3.63759C7.52993 2.89181 8.12987 2.283 8.86493 2.283H12.1312C12.8699 2.283 13.4662 2.89181 13.4662 3.63759V3.9Z" fill="#F65A5A"/>
</svg>
